<svg xmlns="http://www.w3.org/2000/svg">
  <defs>
    <symbol id="arrow-right-up" viewBox="0 0 32 32">
      <path
        d="M25 8V21C25 21.2652 24.8947 21.5196 24.7071 21.7071C24.5196 21.8946 24.2652 22 24 22C23.7348 22 23.4804 21.8946 23.2929 21.7071C23.1054 21.5196 23 21.2652 23 21V10.4137L8.70751 24.7075C8.51987 24.8951 8.26537 25.0006 8.00001 25.0006C7.73464 25.0006 7.48015 24.8951 7.29251 24.7075C7.10487 24.5199 6.99945 24.2654 6.99945 24C6.99945 23.7346 7.10487 23.4801 7.29251 23.2925L21.5863 9H11C10.7348 9 10.4804 8.89464 10.2929 8.70711C10.1054 8.51957 10 8.26522 10 8C10 7.73478 10.1054 7.48043 10.2929 7.29289C10.4804 7.10536 10.7348 7 11 7H24C24.2652 7 24.5196 7.10536 24.7071 7.29289C24.8947 7.48043 25 7.73478 25 8Z"
        fill="currentColor"
      />
    </symbol>
    <symbol id="camera" viewBox="0 0 32 32">
      <path
        d="M26 7H22.535L20.8312 4.445C20.74 4.30819 20.6164 4.196 20.4714 4.11838C20.3264 4.04076 20.1645 4.0001 20 4H12C11.8355 4.0001 11.6736 4.04076 11.5286 4.11838C11.3836 4.196 11.26 4.30819 11.1687 4.445L9.46375 7H6C5.20435 7 4.44129 7.31607 3.87868 7.87868C3.31607 8.44129 3 9.20435 3 10V24C3 24.7956 3.31607 25.5587 3.87868 26.1213C4.44129 26.6839 5.20435 27 6 27H26C26.7956 27 27.5587 26.6839 28.1213 26.1213C28.6839 25.5587 29 24.7956 29 24V10C29 9.20435 28.6839 8.44129 28.1213 7.87868C27.5587 7.31607 26.7956 7 26 7ZM27 24C27 24.2652 26.8946 24.5196 26.7071 24.7071C26.5196 24.8946 26.2652 25 26 25H6C5.73478 25 5.48043 24.8946 5.29289 24.7071C5.10536 24.5196 5 24.2652 5 24V10C5 9.73478 5.10536 9.48043 5.29289 9.29289C5.48043 9.10536 5.73478 9 6 9H10C10.1647 9.00011 10.3268 8.95954 10.4721 8.88191C10.6173 8.80428 10.7411 8.69199 10.8325 8.555L12.535 6H19.4638L21.1675 8.555C21.2589 8.69199 21.3827 8.80428 21.5279 8.88191C21.6732 8.95954 21.8353 9.00011 22 9H26C26.2652 9 26.5196 9.10536 26.7071 9.29289C26.8946 9.48043 27 9.73478 27 10V24ZM16 11C14.9122 11 13.8488 11.3226 12.9444 11.9269C12.0399 12.5313 11.3349 13.3902 10.9187 14.3952C10.5024 15.4002 10.3935 16.5061 10.6057 17.573C10.8179 18.6399 11.3417 19.6199 12.1109 20.3891C12.8801 21.1583 13.8601 21.6821 14.927 21.8943C15.9939 22.1065 17.0998 21.9976 18.1048 21.5813C19.1098 21.1651 19.9687 20.4601 20.5731 19.5556C21.1774 18.6512 21.5 17.5878 21.5 16.5C21.4983 15.0418 20.9184 13.6438 19.8873 12.6127C18.8562 11.5816 17.4582 11.0017 16 11ZM16 20C15.3078 20 14.6311 19.7947 14.0555 19.4101C13.4799 19.0256 13.0313 18.4789 12.7664 17.8394C12.5015 17.1999 12.4322 16.4961 12.5673 15.8172C12.7023 15.1383 13.0356 14.5146 13.5251 14.0251C14.0146 13.5356 14.6383 13.2023 15.3172 13.0673C15.9961 12.9322 16.6999 13.0015 17.3394 13.2664C17.9789 13.5313 18.5256 13.9799 18.9101 14.5555C19.2947 15.1311 19.5 15.8078 19.5 16.5C19.5 17.4283 19.1313 18.3185 18.4749 18.9749C17.8185 19.6313 16.9283 20 16 20Z"
        fill="currentColor"
      />
    </symbol>
    <symbol id="caret-down" viewBox="0 0 32 32">
      <path
        d="M26.7075 12.7075L16.7075 22.7075C16.6146 22.8005 16.5043 22.8742 16.3829 22.9246C16.2615 22.9749 16.1314 23.0008 16 23.0008C15.8686 23.0008 15.7385 22.9749 15.6171 22.9246C15.4957 22.8742 15.3854 22.8005 15.2925 22.7075L5.29251 12.7075C5.10487 12.5199 4.99945 12.2654 4.99945 12C4.99945 11.7346 5.10487 11.4801 5.29251 11.2925C5.48015 11.1049 5.73464 10.9995 6.00001 10.9995C6.26537 10.9995 6.51987 11.1049 6.70751 11.2925L16 20.5863L25.2925 11.2925C25.3854 11.1996 25.4957 11.1259 25.6171 11.0756C25.7385 11.0253 25.8686 10.9995 26 10.9995C26.1314 10.9995 26.2615 11.0253 26.3829 11.0756C26.5043 11.1259 26.6146 11.1996 26.7075 11.2925C26.8004 11.3854 26.8741 11.4957 26.9244 11.6171C26.9747 11.7385 27.0006 11.8686 27.0006 12C27.0006 12.1314 26.9747 12.2615 26.9244 12.3829C26.8741 12.5043 26.8004 12.6146 26.7075 12.7075Z"
        fill="currentColor"
      />
    </symbol>
  </defs>
</svg>
